<svg width="35" height="35" viewBox="0 0 35 35" fill="none" xmlns="http://www.w3.org/2000/svg">
<mask id="path-1-inside-1_43_80" fill="white">
<path d="M34.9829 17.4942C34.9829 19.9477 34.9335 22.4083 34.997 24.8618C35.1028 29.2048 32.3728 32.5608 28.8949 34.0555C27.4982 34.6548 26.0308 34.9721 24.5141 34.9721C19.7665 34.9791 15.0118 35.0426 10.2642 34.9509C6.6876 34.8804 3.7459 33.3857 1.63663 30.4387C0.529082 28.8876 0 27.125 0 25.2143C0 20.1592 0 15.1111 0 10.056C0 5.93153 2.01051 3.04792 5.58005 1.17252C7.13203 0.361728 8.81804 0.0162591 10.5746 0.00920867C15.1811 0.00920867 19.7947 -0.0189929 24.4013 0.0233094C27.9779 0.051511 30.9619 1.41929 33.1629 4.29584C34.3903 5.90333 34.9829 7.75053 34.9829 9.78104C34.9829 12.3474 34.9829 14.9208 34.9829 17.4942ZM2.60308 17.4942C2.60308 20.0816 2.60308 22.6621 2.60308 25.2496C2.60308 26.4058 2.87115 27.4916 3.47078 28.4716C5.04392 31.045 7.42126 32.3 10.37 32.3493C15.1035 32.4198 19.8441 32.3775 24.5847 32.3634C25.7487 32.3634 26.8774 32.1237 27.9285 31.6231C30.7926 30.2554 32.3939 28.0768 32.3798 24.8054C32.3516 19.7996 32.3728 14.7939 32.3728 9.78809C32.3728 8.37096 31.9707 7.07369 31.1312 5.93153C29.5087 3.73886 27.2654 2.66015 24.5847 2.63195C19.8582 2.57555 15.1318 2.6108 10.4053 2.61785C9.3965 2.61785 8.42299 2.82231 7.4777 3.17483C4.88167 4.14073 2.46905 6.58722 2.58192 10.19C2.66657 12.6294 2.60308 15.0618 2.60308 17.4942Z"/>
</mask>
<path d="M34.9829 17.4942C34.9829 19.9477 34.9335 22.4083 34.997 24.8618C35.1028 29.2048 32.3728 32.5608 28.8949 34.0555C27.4982 34.6548 26.0308 34.9721 24.5141 34.9721C19.7665 34.9791 15.0118 35.0426 10.2642 34.9509C6.6876 34.8804 3.7459 33.3857 1.63663 30.4387C0.529082 28.8876 0 27.125 0 25.2143C0 20.1592 0 15.1111 0 10.056C0 5.93153 2.01051 3.04792 5.58005 1.17252C7.13203 0.361728 8.81804 0.0162591 10.5746 0.00920867C15.1811 0.00920867 19.7947 -0.0189929 24.4013 0.0233094C27.9779 0.051511 30.9619 1.41929 33.1629 4.29584C34.3903 5.90333 34.9829 7.75053 34.9829 9.78104C34.9829 12.3474 34.9829 14.9208 34.9829 17.4942ZM2.60308 17.4942C2.60308 20.0816 2.60308 22.6621 2.60308 25.2496C2.60308 26.4058 2.87115 27.4916 3.47078 28.4716C5.04392 31.045 7.42126 32.3 10.37 32.3493C15.1035 32.4198 19.8441 32.3775 24.5847 32.3634C25.7487 32.3634 26.8774 32.1237 27.9285 31.6231C30.7926 30.2554 32.3939 28.0768 32.3798 24.8054C32.3516 19.7996 32.3728 14.7939 32.3728 9.78809C32.3728 8.37096 31.9707 7.07369 31.1312 5.93153C29.5087 3.73886 27.2654 2.66015 24.5847 2.63195C19.8582 2.57555 15.1318 2.6108 10.4053 2.61785C9.3965 2.61785 8.42299 2.82231 7.4777 3.17483C4.88167 4.14073 2.46905 6.58722 2.58192 10.19C2.66657 12.6294 2.60308 15.0618 2.60308 17.4942Z" fill="black" stroke="black" stroke-width="2" mask="url(#path-1-inside-1_43_80)"/>
<path d="M17.5302 24.9675C12.9801 24.9675 9.31175 21.3436 9.3047 16.8314C9.29764 12.3897 12.9942 8.75166 17.5161 8.75166C22.0521 8.74461 25.7345 12.3756 25.7415 16.8525C25.7415 21.3225 22.0662 24.9605 17.5302 24.9675ZM17.5302 22.3589C20.6271 22.3589 23.1384 19.8842 23.1314 16.8384C23.1243 13.8209 20.6129 11.3532 17.5302 11.3532C14.4333 11.3532 11.9078 13.8138 11.9078 16.8525C11.9148 19.8983 14.4333 22.3659 17.5302 22.3589Z" fill="black"/>
<path d="M26.694 6.28406C27.6463 6.28406 28.4223 7.09485 28.4223 8.08896C28.4153 9.08306 27.6322 9.8868 26.6799 9.87975C25.7416 9.8727 24.9727 9.06896 24.9727 8.09601C24.9656 7.1019 25.7416 6.28406 26.694 6.28406Z" fill="black"/>
</svg>
