<svg width="25" height="25" viewBox="0 0 25 25" fill="none" xmlns="http://www.w3.org/2000/svg">
<mask id="path-1-inside-1_43_80" fill="white">
<path d="M24.5603 12.7098C24.5603 14.4323 24.5256 16.1598 24.5702 17.8823C24.6445 20.9314 22.7278 23.2875 20.2861 24.3369C19.3055 24.7576 18.2753 24.9804 17.2105 24.9804C13.8774 24.9853 10.5393 25.0299 7.20613 24.9655C4.69513 24.916 2.62987 23.8667 1.14902 21.7977C0.37145 20.7087 0 19.4712 0 18.1298C0 14.5808 0 11.0367 0 7.4877C0 4.59205 1.41151 2.56757 3.91756 1.25092C5.00715 0.681691 6.19083 0.439149 7.42405 0.434199C10.6581 0.434199 13.8972 0.4144 17.1313 0.444099C19.6423 0.463898 21.7373 1.42416 23.2825 3.44369C24.1443 4.57225 24.5603 5.86911 24.5603 7.29466C24.5603 9.0964 24.5603 10.9031 24.5603 12.7098ZM1.82753 12.7098C1.82753 14.5264 1.82753 16.338 1.82753 18.1546C1.82753 18.9664 2.01574 19.7286 2.43671 20.4167C3.54116 22.2233 5.21021 23.1044 7.28042 23.1391C10.6037 23.1886 13.9319 23.1589 17.26 23.149C18.0772 23.149 18.8697 22.9807 19.6076 22.6292C21.6184 21.669 22.7426 20.1395 22.7327 17.8427C22.7129 14.3284 22.7278 10.814 22.7278 7.29961C22.7278 6.30469 22.4455 5.39393 21.8561 4.59205C20.717 3.05266 19.1421 2.29533 17.26 2.27553C13.9418 2.23594 10.6235 2.26069 7.30518 2.26564C6.59695 2.26564 5.91348 2.40918 5.24983 2.65667C3.42725 3.3348 1.73343 5.05239 1.81268 7.58175C1.87211 9.29439 1.82753 11.0021 1.82753 12.7098Z"/>
</mask>
<path d="M24.5603 12.7098C24.5603 14.4323 24.5256 16.1598 24.5702 17.8823C24.6445 20.9314 22.7278 23.2875 20.2861 24.3369C19.3055 24.7576 18.2753 24.9804 17.2105 24.9804C13.8774 24.9853 10.5393 25.0299 7.20613 24.9655C4.69513 24.916 2.62987 23.8667 1.14902 21.7977C0.37145 20.7087 0 19.4712 0 18.1298C0 14.5808 0 11.0367 0 7.4877C0 4.59205 1.41151 2.56757 3.91756 1.25092C5.00715 0.681691 6.19083 0.439149 7.42405 0.434199C10.6581 0.434199 13.8972 0.4144 17.1313 0.444099C19.6423 0.463898 21.7373 1.42416 23.2825 3.44369C24.1443 4.57225 24.5603 5.86911 24.5603 7.29466C24.5603 9.0964 24.5603 10.9031 24.5603 12.7098ZM1.82753 12.7098C1.82753 14.5264 1.82753 16.338 1.82753 18.1546C1.82753 18.9664 2.01574 19.7286 2.43671 20.4167C3.54116 22.2233 5.21021 23.1044 7.28042 23.1391C10.6037 23.1886 13.9319 23.1589 17.26 23.149C18.0772 23.149 18.8697 22.9807 19.6076 22.6292C21.6184 21.669 22.7426 20.1395 22.7327 17.8427C22.7129 14.3284 22.7278 10.814 22.7278 7.29961C22.7278 6.30469 22.4455 5.39393 21.8561 4.59205C20.717 3.05266 19.1421 2.29533 17.26 2.27553C13.9418 2.23594 10.6235 2.26069 7.30518 2.26564C6.59695 2.26564 5.91348 2.40918 5.24983 2.65667C3.42725 3.3348 1.73343 5.05239 1.81268 7.58175C1.87211 9.29439 1.82753 11.0021 1.82753 12.7098Z" fill="black" stroke="black" stroke-width="1.40413" mask="url(#path-1-inside-1_43_80)"/>
<path d="M12.307 17.9566C9.11257 17.9566 6.53719 15.4124 6.53223 12.2445C6.52728 9.12608 9.12248 6.57197 12.2971 6.57197C15.4817 6.56702 18.067 9.11618 18.0719 12.2593C18.0719 15.3975 15.4916 17.9516 12.307 17.9566ZM12.307 16.1251C14.4813 16.1251 16.2444 14.3877 16.2395 12.2494C16.2345 10.1309 14.4714 8.39845 12.307 8.39845C10.1328 8.39845 8.35977 10.1259 8.35977 12.2593C8.36472 14.3976 10.1328 16.1301 12.307 16.1251Z" fill="black"/>
<path d="M18.7407 4.83954C19.4093 4.83954 19.9541 5.40877 19.9541 6.10669C19.9492 6.80462 19.3994 7.3689 18.7308 7.36395C18.0721 7.359 17.5323 6.79472 17.5323 6.11164C17.5273 5.41372 18.0721 4.83954 18.7407 4.83954Z" fill="black"/>
</svg>
