<svg width="35" height="35" viewBox="0 0 35 35" fill="none" xmlns="http://www.w3.org/2000/svg">
<path d="M31.2234 0H3.7766C1.69084 0 0 1.69084 0 3.7766V31.2234C0 33.3092 1.69084 35 3.7766 35H31.2234C33.3092 35 35 33.3092 35 31.2234V3.7766C35 1.69084 33.3092 0 31.2234 0Z" fill="black"/>
<path fill-rule="evenodd" clip-rule="evenodd" d="M9.78694 11.3298C9.04226 12.5532 8.66992 13.8298 8.66992 15.3192C8.66992 16.0638 8.7763 17.1277 9.04226 17.8192C9.25503 18.3511 9.46779 18.7234 9.84013 19.149C10.5848 19.9468 12.2869 19.6809 12.2338 18.617C12.2338 18.4043 12.0742 18.0851 11.9678 17.8724C11.0635 15.9575 10.904 15.1064 11.755 13.0319C13.2976 9.36172 18.6699 7.71278 21.7018 10.5851C22.7125 11.4894 23.0848 12.8192 23.1912 14.149C23.2444 16.117 22.8721 18.2979 21.6486 19.8936C21.0635 20.6383 20.2125 21.2766 19.0423 21.2766C18.0848 21.2766 17.2338 20.9043 16.9678 20.1064C16.3827 18.3511 18.404 15.4255 18.138 13.4043C18.0316 12.7128 17.5529 12.3404 16.9678 12.1809C14.6274 11.3298 13.3508 14.6809 13.8295 16.7021C13.8827 17.0745 13.9891 17.2872 14.1486 17.6064C14.255 17.8192 13.9891 18.4575 13.9359 18.9362C13.6699 20.0532 13.3508 21.1702 13.0316 22.3404C12.7657 23.4043 12.3401 25.6383 12.2869 26.7021C12.2869 27.8192 12.3933 28.6702 12.4465 29.7341C13.0848 29.6277 14.2018 27.766 14.521 27.1809C14.5742 27.0213 14.6806 26.8085 14.7869 26.5958C14.8401 26.4362 14.9465 26.117 14.9997 26.0638C15.2125 25.1596 15.638 22.8192 15.9572 22.1277C16.0635 22.1277 16.4359 22.3936 16.5955 22.5C18.6167 23.9362 20.7976 23.9362 22.8721 22.5C24.4146 21.3298 25.4784 19.6277 26.0103 17.766C26.3295 16.4362 26.3295 15.4255 26.3295 13.9894C26.2763 11.4362 24.6806 9.36172 22.4997 8.13831C21.9678 7.87235 21.1167 7.50001 20.4784 7.39363C16.4359 6.48937 11.9678 7.5532 9.78694 11.3298Z" fill="white"/>
</svg>
