<svg width="26" height="25" viewBox="0 0 26 25" fill="none" xmlns="http://www.w3.org/2000/svg">
<path d="M22.416 0.427734H3.14653C1.6822 0.427734 0.495117 1.61481 0.495117 3.07915V22.3486C0.495117 23.8129 1.6822 25 3.14653 25H22.416C23.8803 25 25.0674 23.8129 25.0674 22.3486V3.07915C25.0674 1.61481 23.8803 0.427734 22.416 0.427734Z" fill="black"/>
<path fill-rule="evenodd" clip-rule="evenodd" d="M7.36625 8.38198C6.84344 9.24089 6.58203 10.1371 6.58203 11.1828C6.58203 11.7056 6.65672 12.4525 6.84344 12.9379C6.99281 13.3114 7.14219 13.5728 7.4036 13.8715C7.92641 14.4317 9.12142 14.245 9.08407 13.4981C9.08407 13.3487 8.97204 13.1247 8.89735 12.9753C8.26251 11.6309 8.15047 11.0334 8.74798 9.57699C9.83095 7.00026 13.6027 5.8426 15.7313 7.85917C16.4408 8.49402 16.7022 9.42761 16.7769 10.3612C16.8143 11.7429 16.5528 13.274 15.6939 14.3944C15.2832 14.9172 14.6857 15.3653 13.8641 15.3653C13.1919 15.3653 12.5944 15.1039 12.4077 14.5437C11.9969 13.3114 13.416 11.2575 13.2292 9.8384C13.1546 9.35293 12.8185 9.09152 12.4077 8.97949C10.7645 8.38198 9.86829 10.7346 10.2044 12.1537C10.2417 12.4151 10.3164 12.5645 10.4285 12.7886C10.5031 12.9379 10.3164 13.3861 10.2791 13.7222C10.0924 14.5064 9.86829 15.2906 9.64423 16.1122C9.45751 16.859 9.15876 18.4275 9.12142 19.1744C9.12142 19.9586 9.1961 20.5561 9.23345 21.303C9.68157 21.2283 10.4658 19.9212 10.6899 19.5105C10.7272 19.3984 10.8019 19.2491 10.8766 19.0997C10.9139 18.9876 10.9886 18.7636 11.026 18.7262C11.1753 18.0914 11.4741 16.4483 11.6981 15.9628C11.7728 15.9628 12.0342 16.1495 12.1463 16.2242C13.5653 17.2325 15.0964 17.2325 16.5528 16.2242C17.6358 15.4026 18.3827 14.2076 18.7561 12.9006C18.9802 11.967 18.9802 11.2575 18.9802 10.2492C18.9429 8.45667 17.8225 7.00026 16.2914 6.14135C15.918 5.95463 15.3205 5.69323 14.8724 5.61854C12.0342 4.98369 8.89735 5.73057 7.36625 8.38198Z" fill="white"/>
</svg>
