<svg width="35" height="35" viewBox="0 0 35 35" fill="none" xmlns="http://www.w3.org/2000/svg">
<path d="M24.3182 11.442L12.254 18.7012C12.0466 18.8222 11.9602 19.0642 12.0293 19.2889L13.6021 24.9234C13.654 25.079 13.8787 25.0617 13.896 24.8889L14.2416 21C14.2589 20.7062 14.3972 20.4296 14.6219 20.2395L24.4737 11.6494C24.5774 11.5457 24.4392 11.3555 24.3182 11.442Z" fill="#231F20"/>
<path d="M28.9506 0H6.04938C2.71358 0 0 2.71358 0 6.04938V28.9506C0 32.2864 2.71358 35 6.04938 35H28.9506C32.2864 35 35 32.2864 35 28.9506V6.04938C35 2.71358 32.2691 0 28.9506 0ZM29.9531 7.63951L25.5284 27.7407C25.3728 28.4148 24.5778 28.6914 24.042 28.2593L18.8568 24.1457C18.4765 23.8346 17.9062 23.8864 17.5778 24.2667L14.9161 27.3432C14.4494 27.8963 13.5506 27.7062 13.3432 27.0321L10.9926 19.7901C10.8889 19.4963 10.6469 19.2543 10.3531 19.1852L5.7037 17.958C4.85679 17.7333 4.77037 16.558 5.58272 16.2123L28.6914 6.58518C29.3827 6.30864 30.1086 6.91358 29.9531 7.63951Z" fill="#231F20"/>
</svg>
