<svg width="25" height="25" viewBox="0 0 25 25" fill="none" xmlns="http://www.w3.org/2000/svg">
<path d="M17.4028 8.46073L8.93299 13.5572C8.78738 13.6421 8.72671 13.812 8.77524 13.9698L9.87948 17.9256C9.91588 18.0348 10.0736 18.0227 10.0858 17.9013L10.3285 15.1711C10.3406 14.9648 10.4377 14.7706 10.5954 14.6372L17.5121 8.60634C17.5849 8.53353 17.4878 8.40005 17.4028 8.46073Z" fill="#231F20"/>
<path d="M20.6553 0.427734H4.57714C2.23519 0.427734 0.330078 2.33284 0.330078 4.67479V20.7529C0.330078 23.0949 2.23519 25 4.57714 25H20.6553C22.9972 25 24.9023 23.0949 24.9023 20.7529V4.67479C24.9023 2.33284 22.9851 0.427734 20.6553 0.427734ZM21.3591 5.79116L18.2527 19.9035C18.1435 20.3768 17.5853 20.5709 17.2091 20.2676L13.5688 17.3796C13.3018 17.1611 12.9014 17.1976 12.6708 17.4645L10.8021 19.6244C10.4745 20.0127 9.84349 19.8793 9.69788 19.406L8.04759 14.3217C7.97478 14.1154 7.8049 13.9455 7.59862 13.897L4.33445 13.0354C3.73986 12.8777 3.67919 12.0525 4.24951 11.8099L20.4733 5.05096C20.9587 4.85681 21.4683 5.28152 21.3591 5.79116Z" fill="#231F20"/>
</svg>
