<svg width="35" height="35" viewBox="0 0 35 35" fill="none" xmlns="http://www.w3.org/2000/svg">
<path d="M22.8725 0H12.1275C2.3275 0 0 2.3275 0 12.1275V22.8725C0 32.6725 2.3275 35 12.1275 35H22.8725C32.6725 35 35 32.6725 35 22.8725V12.1275C35 2.3275 32.6725 0 22.8725 0ZM28.2625 24.9725H25.7075C24.745 24.9725 24.4475 24.185 22.75 22.4525C21.21 21 20.545 20.79 20.1775 20.79C19.67 20.79 19.5125 20.93 19.5125 21.665V23.9575C19.5125 24.57 19.32 24.955 17.6925 24.955C14.9975 24.955 12.005 23.31 9.905 20.2825C6.7375 15.8375 5.88 12.4775 5.88 11.8125C5.88 11.445 6.0025 11.095 6.7375 11.095H9.31C9.9575 11.095 10.2025 11.375 10.4475 12.075C11.7075 15.75 13.8075 18.9 14.665 18.9C14.9975 18.9 15.1375 18.7425 15.1375 17.9375V14.175C15.05 12.46 14.1225 12.3025 14.1225 11.69C14.1225 11.375 14.3675 11.095 14.77 11.095H18.7775C19.32 11.095 19.5125 11.375 19.5125 12.04V17.0975C19.5125 17.64 19.74 17.8325 19.915 17.8325C20.23 17.8325 20.51 17.64 21.0875 17.045C22.925 14.9975 24.2375 11.83 24.2375 11.83C24.4125 11.4625 24.6925 11.1125 25.375 11.1125H27.8775C28.6475 11.1125 28.8225 11.515 28.6475 12.0575C28.3325 13.545 25.2175 17.9375 25.2525 17.9375C24.9725 18.375 24.8675 18.5675 25.2525 19.075C25.515 19.4425 26.4075 20.2125 27.0025 20.895C28.0875 22.1375 28.9275 23.17 29.155 23.8875C29.3475 24.605 28.9975 24.9725 28.2625 24.9725Z" fill="black"/>
</svg>
