<svg width="25" height="25" viewBox="0 0 25 25" fill="none" xmlns="http://www.w3.org/2000/svg">
<path d="M16.223 0.427734H8.67933C1.7991 0.427734 0.165039 2.06179 0.165039 8.94203V16.4857C0.165039 23.3659 1.7991 25 8.67933 25H16.223C23.1033 25 24.7373 23.3659 24.7373 16.4857V8.94203C24.7373 2.06179 23.1033 0.427734 16.223 0.427734ZM20.0071 17.9601H18.2134C17.5376 17.9601 17.3288 17.4072 16.137 16.1908C15.0558 15.1711 14.589 15.0237 14.331 15.0237C13.9747 15.0237 13.8641 15.122 13.8641 15.638V17.2475C13.8641 17.6775 13.7289 17.9478 12.5863 17.9478C10.6943 17.9478 8.59333 16.7929 7.11899 14.6674C4.8952 11.5467 4.29318 9.18775 4.29318 8.72088C4.29318 8.46287 4.37918 8.21714 4.8952 8.21714H6.70126C7.15585 8.21714 7.32786 8.41372 7.49986 8.90517C8.38446 11.4853 9.8588 13.6968 10.4608 13.6968C10.6943 13.6968 10.7925 13.5862 10.7925 13.021V10.3795C10.7311 9.17546 10.08 9.06489 10.08 8.63487C10.08 8.41372 10.252 8.21714 10.5345 8.21714H13.3481C13.7289 8.21714 13.8641 8.41372 13.8641 8.8806V12.4313C13.8641 12.8122 14.0238 12.9473 14.1467 12.9473C14.3678 12.9473 14.5644 12.8122 14.9698 12.3944C16.2599 10.957 17.1813 8.73316 17.1813 8.73316C17.3042 8.47515 17.5008 8.22943 17.9799 8.22943H19.7369C20.2774 8.22943 20.4003 8.51201 20.2774 8.89288C20.0563 9.9372 17.8694 13.021 17.8939 13.021C17.6974 13.3282 17.6236 13.4633 17.8939 13.8196C18.0782 14.0776 18.7048 14.6182 19.1225 15.0974C19.8843 15.9697 20.474 16.6946 20.6337 17.1983C20.7689 17.702 20.5232 17.9601 20.0071 17.9601Z" fill="black"/>
</svg>
